<svg version="1" xmlns="http://www.w3.org/2000/svg" width="1200" height="1200" viewBox="0 0 900.000000 900.000000"><path d="M387.6 95.8c-.3.5-3.1 1.5-6.3 2.2-6.8 1.6-6.4 1.5-8.3 2.3-1.4.6-9.9 2.8-11 3-.3 0-2.1.7-4 1.5s-3.5 1.4-3.5 1.3c0-.3-1.9.3-8 2.6-2.7 1-5.2 1.8-5.5 1.8-1.2.1-15.6 5.9-16.4 6.7-.6.4-1.8.8-2.8.8-1 0-1.8.4-1.8.8 0 .5-.6.9-1.2.9-.7 0-7.4 3-14.8 6.7-14.1 7-16.2 8.2-24.5 13.1-2.7 1.7-6.2 3.7-7.7 4.4-1.6.8-2.8 1.8-2.8 2.3 0 .4-.4.8-1 .8-1.1 0-19.3 12.6-22.4 15.5-.6.6-3.3 2.8-6.1 5-18.1 14.5-35.4 32.5-51.1 53.5-13.1 17.3-27.8 43.4-35.9 63.6-2.2 5.4-3.8 7.7-6.5 9.5-1.9 1.3-3.9 2.7-4.5 3.2-.5.4-5.1 3.8-10.1 7.5-29.1 21.5-68 55.8-68.9 60.7-.2 1.1-.4 2-.5 2-.2 0-.6 2.2-1.4 6.7-.2 1.4-.7 3.4-1 4.5-.3 1-.8 4-1.1 6.8-.3 2.7-.7 6.5-1 8.4-.6 4.6-1.6 16.2-2.1 23.6-.3 5.4-.4 49.2-.1 57.4.1 3 .6 3.6 4.5 5.3 5.1 2.3 4.4 2.7 12.1-7.6 2.4-3.2 5.1-6.6 6-7.6.9-.9 4.1-4.5 7.1-8 11.5-13.3 27.9-29.9 42-42.6 3-2.7 5.7-5.2 6-5.5.3-.4 7-5.9 15-12.3l14.5-11.7 9 .6c4.9.4 9.2.8 9.5 1 .3.1 3.7.5 7.5.9 3.9.4 8.1.8 9.5 1.1l6.3.9c2 .3 5.4.9 7.5 1.2 2 .4 4.4.7 5.2.8 4.9.6 11 1.9 11 2.3 0 .8-4.4 4.2-5.6 4.3-.5 0-2.3-1.4-3.9-3-2.3-2.4-3.7-3-7.1-3-3.9 0-4.4.3-7.2 4.7-4.9 7.8-12.8 24.6-14.7 31.5-.2.5-.3.9-.5 1-.1.2-.3 1-.5 1.8s-1.3 4.7-2.4 8.6c-1.1 3.9-2.3 8.6-2.6 10.5-.3 1.9-1 5.6-1.5 8.4-4.2 22.6-5.2 58-2.5 89.5.3 4.1.8 8.6 1 10 .2 1.4.7 4.7 1 7.5.3 2.7.8 6.3 1.1 8 .3 1.6.6 4.1.8 5.5.6 5 4.9 14.2 11.3 24.3 2.4 3.7 4.3 7.2 4.3 7.6 0 .5.3 1.1.8 1.3.4.1 2.7 3 5.2 6.3 6.4 8.7 8.3 10.8 20.5 23.1 20.3 20.5 45 39 70.5 53.2l5.6 3 3.7-2.1 3.7-2.1.1-7.5c.1-16.5 1.5-39 3.6-58.1.3-3 .6-7 .7-8.8.1-1.7.3-3.2.7-3.2.3 0 .5-1 .6-2.3.1-2.3 1.1-9.1 1.8-11.7.2-.8.7-3.3 1-5.5.7-5 1.3-8.1 1.9-10.3.3-.9.7-2.8 1-4.2 2.1-11.3 11.4-43.3 13.6-46.5.3-.6 1.4-3.1 2.4-5.8 1-2.6 2-4.7 2.2-4.7.3 0 3.9 1.8 8 4 4.2 2.2 8.2 4 9 4 .8 0 1.4.4 1.4.9s1.7 1.5 3.8 2.2c2 .6 4.2 1.5 4.7 1.9.6.4 4.8 2.1 9.5 3.9 4.7 1.8 9.4 3.7 10.5 4.1 1.1.5 3.8 1.4 6 2.1 2.2.6 4.6 1.6 5.3 2.2.6.5 1.2.7 1.2.3 0-.3 1.1-.1 2.5.4 2.6 1 23.9 6.5 28.5 7.4 8.4 1.6 15.1 3.4 13 3.5-1.4 0-4.3-.4-6.5-.9s-5.6-1.1-7.5-1.4c-5.3-.9-29.2-6.6-31.5-7.6-1.1-.5-3.1-1.2-4.5-1.5-2.1-.6-13.1-4.4-18-6.2-.8-.4-1.7-.7-2-.8-3.5-1.2-14.2-6-19.1-8.6l-3.6-1.9-2.9 2.5c-1.6 1.4-3.2 2.5-3.5 2.5-.9 0-.2 5.4 2.2 16.1 1.1 5.2 2.2 10.5 2.5 11.8.3 1.4.7 2.8 1 3.2.2.4-1.6 4.7-4 9.6-10.3 20.6-18.7 46.5-23 70.8-.3 1.6-.8 4.1-1.1 5.5-.3 1.4-.7 4.1-1 6-2.5 18.1-2.7 20-4 38-.6 8.1-.8 38.6-.5 51.5.1 2.2.8 5 1.5 6.1 2.5 4 20.8 15.1 32.9 20 3.4 1.4 7 2.9 8.1 3.4 5.5 2.5 28.4 8.3 37.3 9.5 1.5.2 4.7.6 7.2 1s6.2.8 8.3.9c2 0 3.7.3 3.7.6 0 .9 20 1.2 20 .3.1-1.9 1.1-12.1 1.6-14.9l.4-3h31.8c27.4.1 45.7-.5 55.2-1.8 10.1-1.4 12.9-1.8 15.5-2.2 4.8-.8 18.3-4.3 27-7 4.4-1.4 8.7-2.7 9.5-2.9.8-.2 3.3-1.1 5.4-2 2.2-.9 4.7-1.8 5.5-2 1.8-.4 16.7-6.4 23.6-9.5 2.5-1.1 6.6-2.9 9.3-4.1 23-10.1 45-24.5 50.8-33.4 2.4-3.6 2.5-6 2.6-35 0-24-.4-34.4-1.8-43.5-.2-1.9-.7-5.8-1-8.5-.3-2.8-.8-5.3-1-5.6-.2-.4-.6-2.8-.9-5.5-.4-2.6-.9-5.2-1.2-5.7-.3-.4-.7-2.3-1-4-.3-1.8-.9-4-1.4-5-.5-.9-.8-1.7-.5-1.7.8 0-6.1-18.4-9.2-24.6-2.9-5.7-9.7-13.4-11.7-13.3-.5.1-1.7.5-2.5.9s-3.1 1.1-5 1.4c-1.9.3-5.2 1-7.2 1.5-2.1.5-3.8.7-3.8.5 0-.3-.8 0-1.7.5-1 .5-4.1 1.1-6.9 1.5-2.9.3-6.2.7-7.5 1-5 1.1-15 2.4-22.9 3.1-3 .2-5.5.4-5.5.5 0 .6-43 1.5-46.1.9-2.2-.4-3.3.2-3.2 1.9.1 2.1-1.7 8.8-3.7 13.6-.8 2-1.5 3.8-1.5 4.1.2 2.6-15.9 28.8-22.4 36.4-5.6 6.6-21.8 22.2-27.6 26.6-3.6 2.8-7.1 5.6-7.8 6.3-2.1 1.9-20 13.5-26.2 16.9-5.2 2.9-5.6 3.4-6.7 8.4-.6 2.9-1 5.6-.7 6 .2.4 0 1-.5 1.3-1.2.8-20.4-15.9-28.6-24.9-8.9-9.8-13.2-16.3-5.9-9 2.7 2.8 7.6 7.2 10.9 10 3.3 2.7 6.2 5.2 6.5 5.5.6.6 3.5 2.4 7.3 4.6 3.1 1.7 3.3 1.6 9.2-2.1 2.2-1.3 4.9-2.9 6-3.4 3.6-1.6 21.9-14.3 29.5-20.5 25.5-20.6 48.4-51 55.5-73.7 1.6-5.1 1.6-6 .3-10-1.7-4.9-1.6-4.9-13.3-3.5-3.3.4-14.5.9-24.8 1.2l-18.8.4.7-24.3c1.3-41.8.7-103.9-1.1-123.2-.1-1.7-.5-7.1-.9-12-.4-5-.9-9.8-1.2-10.8-.7-2.1.3-2.2 16.6-1.2 2.5.1 5.5.3 6.8.4 1.9.1 2.3.6 2.2 2.8-.1 1.6-.1 3-.1 3.3.4 1.1 1.4 16.7 2.8 44.5.8 16.5.8 59.8 0 72-.9 13.5-2 21.6-3.5 27-1.1 3.7 1.9 10.5 4.6 10.5.9.1 6 .4 11.2.8 20.7 1.4 84.9.7 96-1.2 1.4-.3 4.9-.7 7.8-1 7.7-.9 12-1.6 18.2-2.8 3-.6 6.4-1.2 7.5-1.4 1.1-.1 2-.3 2-.4 0-.1 1-.3 2.3-.6 1.3-.2 6.9-2 12.5-4 5.6-1.9 10.8-3.6 11.5-3.6.6-.1 1.2-.5 1.2-1 0-.4.3-.7.8-.6 1.1.3 7.1-3 12.7-7.1 5.5-3.9 12.3-10.6 17-16.6 1.7-2.1 3.5-4.3 4-4.9 2.1-2.2 10-15.3 14.6-24.1 5.9-11.3 10.5-22.6 15.9-38.5 2.3-6.9 4.5-12.7 4.7-13 .5-.4-.3 15.6-1.2 26-1.1 13.7-7.1 42.3-11.5 54.7l-1.8 5.2 2.6 1.7c3.4 2.1 7.1 6.5 7.2 8.3 0 1.4-2.3 4.8-6.9 10.1-7.7 8.9-14.5 16.2-20.3 21.9l-6.6 6.5 3.2 4c13.6 17 25.7 49.4 29.1 78.1.4 2.7.9 6.1 1.1 7.5.3 1.4.7 11.3 1 22 .2 10.7.4 19.8.4 20.1 0 .3 1.7 1.2 3.9 1.9 3.4 1.1 4.1 1 5.8-.6 1.1-1.1 4.9-4.6 8.4-8 10.3-9.8 17-17.3 28.6-31.7 11.2-13.9 23.3-30.9 23.3-32.7 0-.5.4-1 .8-1 .5 0 1.4-1 2-2.3.7-1.2 2.8-4.9 4.7-8.2 10.6-17.9 20.3-39.1 27-58.7 2.9-8.7 5.1-15.8 4.9-15.8-.3 0 0-.8.5-1.8.5-.9 1.1-3.1 1.4-4.7.3-1.7 1.2-5.9 2.1-9.5.8-3.6 1.7-8.3 2.1-10.5.3-2.3.7-5 .9-6 .4-2.2 1.7-13.9 2.2-20 1.2-15.6-.1-43.8-2.8-59-.5-3.3-1.2-7.4-1.5-9-.3-1.7-.6-3.5-.8-4-1.8-7.8-6.6-25.8-7.5-28-.4-1.1-2.7-7.2-5-13.5-3.8-10.2-11.1-27-14.1-32.4-.6-1-2.9-5.3-5.1-9.5-10.2-19.2-18.7-28.2-31.2-33.2-4.6-1.8-4.1-1.2-9.4-13.6-6.7-15.6-23.1-40.6-34-51.9-1.5-1.6-2.4-1.6-33.5-1.6h-21.9l6.9-4.6c17-11.3 39.7-22.3 59-28.7 10-3.2 12.4-3.3 18.8-.7 6.8 2.7 23.3 11.5 24.5 13.1.3.3 2.5 2.1 4.9 4 2.4 1.9 6 5.2 7.9 7.3 2.4 2.6 4 3.7 5.1 3.3 1.8-.7 3.2-1.1 8.2-1.9 1.9-.3 6.1-1 9.4-1.6 10.1-1.7 20.4-2.4 35.7-2.4l14.7.1-.1-4c0-4.3-1.7-6.7-11.3-15.9-5-5-15.9-12.7-20.7-14.9-1.6-.7-2.8-1.7-2.8-2.2 0-.6-.3-.7-.7-.4-.3.4-1.6.1-2.7-.6-7.1-4.7-33.4-12-47.6-13.3-3-.2-6.8-.7-8.5-1-1.6-.3-28.1-.8-58.7-1l-55.7-.3-8.8-5.9c-21.9-14.8-48.4-27.4-75.8-36.2-18.8-6-43.1-12.6-50-13.5-2.2-.2-5.6-.7-7.5-1-12.3-1.9-57.6-2.7-77-1.3-9.6.7-19.1 2.7-20.2 4.2-.4.6-.8.8-.8.4 0-.7-8.6 1.9-10.5 3.2-.5.3-2.9 1.2-5.2 2-2.4.7-4.3 1.8-4.3 2.3 0 .6-.3.7-.6.4-.7-.7-22.2 10-31.8 15.8-3.2 1.9-6 3.5-6.1 3.5-.6 0 2.9-6.5 3.8-7.1.5-.3.8-.9.7-1.3-.1-.4 3.7-7.4 8.4-15.6 8.2-14.1 9.1-16.3 8.7-21.8-.1-2.1-2.4-3.1-3.5-1.4zM559 184c2.3-.4 4-.3 4 .2s.4.7.8.4c.5-.3 2.6-.6 4.8-.6 6.3-.2 43.9 1.5 43.9 2 0 .1 1.4.3 3.2.3 3.2.2 5.9 1.7 3 1.7-1.4 0-10.1 5.3-11.7 7.1-.3.3-1.2.8-2 1.1-2.1.8-19.2 14.8-20.8 17-1.8 2.4-2.4 2.3-14.9-1.8-10.1-3.4-24.8-7.3-33.8-8.9-2.2-.4-4.9-.9-6-1.1-2.3-.4-9.4-1.3-17.5-2.1-7.9-.8-25.5-.8-32.5-.1-16.4 1.9-16.8 1.9-38 5.8-2.7.5-6.1 1.2-7.5 1.5-1.4.3-3.6.8-5 1.1-1.4.3-5.9 1.4-10 2.5s-8.3 2.2-9.3 2.4c-1 .2-5.7 1.6-10.5 3.1s-9 2.8-9.4 2.8c-.3.1-1 .4-1.4.8-.4.5-1.4.8-2.3.8-.9 0-6.4 2-12.3 4.4l-10.6 4.3-1.1-4.1c-2.6-10.3-2.9-12.3-3.5-27.9-.3-7.1-.2-11.7.4-11.8.6-.1 1.6-.2 2.3-.3.6-.1 3.5.4 6.2 1.1 2.8.6 6.4 1.4 8 1.7 1.7.2 3.1.5 3.3.5.1.1.4.1.7.2.2 0 1.9.5 3.7 1 1.8.6 4.2 1.2 5.3 1.5 1.1.3 2.5.6 3 .8 4 1 13.4 3.8 15 4.5 1.1.5 4 1.5 6.5 2.2 2.5.7 5.1 1.7 5.8 2.2.6.5 1.2.7 1.2.4 0-.3 2.6.5 5.8 1.8l5.8 2.4 6-2c3.2-1.1 6.8-2.2 7.9-2.4 1.1-.2 2-.4 2-.5 0-.1.7-.3 1.5-.5s5.6-1.5 10.6-2.9c5.1-1.3 10.9-2.7 12.9-3 2.1-.4 4.1-.8 4.5-1.1.4-.3 2.5-.7 4.6-1 2.2-.3 5-.7 6.4-1 1.3-.2 4-.7 6-1 2-.3 4.6-.7 5.7-.9 7-1.4 30.8-3.5 44.1-4 5.1-.2 9.6-.7 10-1 .3-.4.8-.3 1 .2.1.5 2 .6 4.2.2zm100.6 76.7c.4 3.2.9 6.9 1 8.3.1 1.4.3 2.5.4 2.5.2 0 .5 2.1 1.5 10.5.4 3.6.9 7.8 1.1 9.5 1.2 10.2 1.7 22.6 1.8 50.5 0 17.3-.1 33.3-.4 35.5-.5 3.8-.7 4-4.8 4.7-9.8 1.6-12 1.6-12.5-.4-.3-1-.2-2 .2-2.2.4-.3.8-1.7.9-3.3.1-1.5.6-6 1.1-9.8.9-7.1.7-52.1-.3-60.5-.3-2.5-.8-6.8-1.1-9.5-.3-2.8-.7-6.1-.9-7.5-.3-1.4-.7-4.5-1-7-.2-2.5-.8-6.9-1.1-9.8l-.7-5.3 6.3-6.3c3.5-3.4 6.7-6.1 7-5.9.4.1 1 2.9 1.5 6zm-358.6-.2c0 .1-1.9 1.5-4.2 3.1-10.6 7.2-14.4 10.4-14.6 12.6-.2 2.8.7 7.2 1.4 6.5.3-.3 2-.1 3.7.4 1.8.6 3.9 1.2 4.8 1.4 11.2 2.5 37.1 14.1 56.3 25.2 6 3.5 11.3 6.3 11.7 6.3.5 0 .9.4.9.8 0 .5 1.2 1.4 2.7 2.1l2.6 1.2-2.9 1.5c-1.6.9-3.6 1.7-4.4 1.9-.8.2-4.1 1.4-7.3 2.9-3.1 1.4-6 2.5-6.2 2.5-.3 0-2.7 1-5.3 2.1-2.6 1.2-8.5 3.8-13.2 5.7-4.7 2-16.1 7.5-25.3 12.1s-16.9 8.3-17.1 8.1c-3.2-4.6-14.5-19-16.3-20.7-1.3-1.3-2.1-2.7-1.8-3.1.2-.5 3.1-1.6 6.3-2.5l5.8-1.6v-4.7l-.1-4.7-8.1-6c-13.3-9.7-34.3-22.7-47.2-29.1-6.6-3.3-12.1-6.2-12.1-6.5-.1-.3 1.5-1.6 3.4-2.9 1.9-1.3 4.5-3.2 5.7-4.3 4.1-3.6 6.3-4.7 10.3-5.3 2.2-.4 5.1-.8 6.5-1.1 1.4-.3 5.2-.7 8.5-1 3.3-.2 7.1-.7 8.4-.9 1.4-.2 7.9-.7 14.5-1.1 6.7-.3 12.2-.7 12.3-.8.3-.2 20.3-.4 20.3-.1zM447 562c0 .5-.5 1-1.1 1-.5 0-.7-.5-.4-1 .3-.6.8-1 1.1-1 .2 0 .4.4.4 1zM64.9 541.7c-4.9 4-19.7 18.9-24.9 25.2-2.5 2.9-5 5.9-5.5 6.5-.6.6-5.2 6.7-10.3 13.6-5 6.9-9.5 12.9-9.9 13.5-3.2 4.1-4 6.2-3.1 7.9.6 1.1.6 1.6.1 1.3-.5-.3-.9 1.2-.8 3.3 0 2.1.3 3.6.6 3.4.4-.2.7.9.7 2.4.1 3.8.9 9 2.2 14.2 1.1 4.1 1.5 6.2 2.3 11 .2.9.6 2 .9 2.5.3.6.9 2.8 1.3 5 .9 4.4.9 4.2 1.8 6.7 1.3 3.3 1.9 5.3 2.3 7.4.2 1.1 1.7 6.1 3.4 11s3.2 9.6 3.4 10.4c1 4 12.9 36.6 13.7 37.4.5.6 2.4.5 4.7-.2l3.9-1.2-.1-47.2c0-46.4.3-53.6 2.3-60.1.6-1.8 3.4-10.9 6.2-20.2 2.8-9.4 5.3-17.7 5.6-18.5.3-.8.7-2 .9-2.7.1-.6 1.4-4.7 2.8-9 7.3-21.9 8.3-26.5 5.6-24.8-.5.3-1.1.1-1.5-.5-1.1-1.8-5.1-1-8.6 1.7z"/></svg>